<mxfile host="app.diagrams.net" agent="Mozilla/5.0 (Windows NT 10.0; Win64; x64) AppleWebKit/537.36 (KHTML, like Gecko) Chrome/137.0.0.0 Safari/537.36" version="28.0.6">
  <diagram name="Page-1" id="U5YUkLa3gcPNvQN1VH0h">
    <mxGraphModel dx="1426" dy="751" grid="1" gridSize="10" guides="1" tooltips="1" connect="1" arrows="1" fold="1" page="1" pageScale="1" pageWidth="850" pageHeight="1100" math="0" shadow="0">
      <root>
        <mxCell id="0" />
        <mxCell id="1" parent="0" />
        <mxCell id="Pea98El_WyHqyqCEPlS4-7" style="edgeStyle=orthogonalEdgeStyle;rounded=0;orthogonalLoop=1;jettySize=auto;html=1;" edge="1" parent="1" source="Pea98El_WyHqyqCEPlS4-1" target="Pea98El_WyHqyqCEPlS4-6">
          <mxGeometry relative="1" as="geometry" />
        </mxCell>
        <mxCell id="Pea98El_WyHqyqCEPlS4-1" value="Users" style="sketch=0;outlineConnect=0;fontColor=#232F3E;gradientColor=none;strokeColor=#232F3E;fillColor=#ffffff;dashed=0;verticalLabelPosition=bottom;verticalAlign=top;align=center;html=1;fontSize=12;fontStyle=0;aspect=fixed;shape=mxgraph.aws4.resourceIcon;resIcon=mxgraph.aws4.users;" vertex="1" parent="1">
          <mxGeometry x="560" y="188.5" width="60" height="60" as="geometry" />
        </mxCell>
        <mxCell id="Pea98El_WyHqyqCEPlS4-38" style="edgeStyle=orthogonalEdgeStyle;rounded=0;orthogonalLoop=1;jettySize=auto;html=1;" edge="1" parent="1" source="Pea98El_WyHqyqCEPlS4-6" target="Pea98El_WyHqyqCEPlS4-35">
          <mxGeometry relative="1" as="geometry" />
        </mxCell>
        <mxCell id="Pea98El_WyHqyqCEPlS4-41" style="edgeStyle=orthogonalEdgeStyle;rounded=0;orthogonalLoop=1;jettySize=auto;html=1;" edge="1" parent="1" source="Pea98El_WyHqyqCEPlS4-6" target="Pea98El_WyHqyqCEPlS4-40">
          <mxGeometry relative="1" as="geometry" />
        </mxCell>
        <mxCell id="Pea98El_WyHqyqCEPlS4-6" value="Compute Engine" style="sketch=0;verticalAlign=top;labelPosition=center;verticalLabelPosition=bottom;align=center;spacingTop=0;shape=image;aspect=fixed;imageAspect=0;image=data:image/svg+xml,PHN2ZyB4bWxucz0iaHR0cDovL3d3dy53My5vcmcvMjAwMC9zdmciIHhtbG5zOnY9Imh0dHBzOi8vdmVjdGEuaW8vbmFubyIgd2lkdGg9IjIwIiBoZWlnaHQ9IjIwIiB2aWV3Qm94PSIwIDAgMjAgMjAiPiYjeGE7CTxzdHlsZSB0eXBlPSJ0ZXh0L2NzcyI+JiN4YTsJLnN0MHtmaWxsOiM0Mjg1ZjQ7fSYjeGE7CS5zdDF7ZmlsbDojNjY5ZGY2O30mI3hhOwkuc3Qye2ZpbGw6I2FlY2JmYTt9JiN4YTsJPC9zdHlsZT4mI3hhOwk8cGF0aCBjbGFzcz0ic3QyIiBkPSJNNyA3aDZ2Nkg3eiIvPiYjeGE7CTxwYXRoIGNsYXNzPSJzdDEiIGQ9Ik05IDBoMnY0SDl6TTUgMGgydjRINXptOCAwaDJ2NGgtMnoiLz4mI3hhOwk8cGF0aCBjbGFzcz0ic3QwIiBkPSJNOSAxNmgydjRIOXptLTQgMGgydjRINXptOCAwaDJ2NGgtMnptMy01VjloNHYyem0wIDR2LTJoNHYyem0wLThWNWg0djJ6Ii8+JiN4YTsJPHBhdGggY2xhc3M9InN0MSIgZD0iTTAgMTFWOWg0djJ6bTAgNHYtMmg0djJ6bTAtOFY1aDR2MnoiLz4mI3hhOwk8cGF0aCBjbGFzcz0ic3QyIiBkPSJNMyAzdjE0aDE0VjN6bTEyIDEySDVWNWgxMHoiLz4mI3hhOwk8cGF0aCBjbGFzcz0ic3QxIiBkPSJNMTAgMTBsLTMgM2g2eiIvPiYjeGE7CTxwYXRoIGNsYXNzPSJzdDAiIGQ9Ik0xMyA3bC0zIDMgMyAzeiIvPiYjeGE7PC9zdmc+;textShadow=0;html=1;spacingBottom=0;fontSize=12;" vertex="1" parent="1">
          <mxGeometry x="479" y="197.5" width="42" height="42" as="geometry" />
        </mxCell>
        <mxCell id="Pea98El_WyHqyqCEPlS4-30" style="edgeStyle=orthogonalEdgeStyle;rounded=0;orthogonalLoop=1;jettySize=auto;html=1;" edge="1" parent="1" source="Pea98El_WyHqyqCEPlS4-8" target="Pea98El_WyHqyqCEPlS4-26">
          <mxGeometry relative="1" as="geometry" />
        </mxCell>
        <mxCell id="Pea98El_WyHqyqCEPlS4-8" value="ESPN, Yahoo&lt;br&gt;REST API" style="image;aspect=fixed;perimeter=ellipsePerimeter;html=1;align=center;shadow=0;dashed=0;fontColor=light-dark(#000000,#6592CD);labelBackgroundColor=none;fontSize=12;spacingTop=3;image=img/lib/ibm/data/data_sources.svg;" vertex="1" parent="1">
          <mxGeometry x="30" y="259" width="60" height="60" as="geometry" />
        </mxCell>
        <mxCell id="Pea98El_WyHqyqCEPlS4-23" value="" style="swimlane;startSize=0;strokeWidth=2;" vertex="1" parent="1">
          <mxGeometry x="120" y="150" width="320" height="300" as="geometry" />
        </mxCell>
        <mxCell id="Pea98El_WyHqyqCEPlS4-20" value="" style="outlineConnect=0;dashed=0;verticalLabelPosition=bottom;verticalAlign=top;align=center;html=1;shape=mxgraph.aws3.cloud_2;fillColor=#F58534;gradientColor=none;" vertex="1" parent="Pea98El_WyHqyqCEPlS4-23">
          <mxGeometry width="40" height="40" as="geometry" />
        </mxCell>
        <mxCell id="Pea98El_WyHqyqCEPlS4-25" value="S3" style="sketch=0;points=[[0,0,0],[0.25,0,0],[0.5,0,0],[0.75,0,0],[1,0,0],[0,1,0],[0.25,1,0],[0.5,1,0],[0.75,1,0],[1,1,0],[0,0.25,0],[0,0.5,0],[0,0.75,0],[1,0.25,0],[1,0.5,0],[1,0.75,0]];outlineConnect=0;fontColor=#232F3E;fillColor=#7AA116;strokeColor=#ffffff;dashed=0;verticalLabelPosition=bottom;verticalAlign=top;align=center;html=1;fontSize=12;fontStyle=0;aspect=fixed;shape=mxgraph.aws4.resourceIcon;resIcon=mxgraph.aws4.s3;" vertex="1" parent="Pea98El_WyHqyqCEPlS4-23">
          <mxGeometry x="34" y="230" width="38" height="38" as="geometry" />
        </mxCell>
        <mxCell id="Pea98El_WyHqyqCEPlS4-27" value="DynamoDB" style="sketch=0;points=[[0,0,0],[0.25,0,0],[0.5,0,0],[0.75,0,0],[1,0,0],[0,1,0],[0.25,1,0],[0.5,1,0],[0.75,1,0],[1,1,0],[0,0.25,0],[0,0.5,0],[0,0.75,0],[1,0.25,0],[1,0.5,0],[1,0.75,0]];outlineConnect=0;fontColor=#232F3E;fillColor=#C925D1;strokeColor=#ffffff;dashed=0;verticalLabelPosition=bottom;verticalAlign=top;align=center;html=1;fontSize=12;fontStyle=0;aspect=fixed;shape=mxgraph.aws4.resourceIcon;resIcon=mxgraph.aws4.dynamodb;" vertex="1" parent="Pea98El_WyHqyqCEPlS4-23">
          <mxGeometry x="110" y="229" width="40" height="40" as="geometry" />
        </mxCell>
        <mxCell id="Pea98El_WyHqyqCEPlS4-29" value="" style="swimlane;startSize=0;labelBackgroundColor=none;strokeWidth=2;" vertex="1" parent="Pea98El_WyHqyqCEPlS4-23">
          <mxGeometry x="30" y="70" width="122" height="120" as="geometry" />
        </mxCell>
        <mxCell id="Pea98El_WyHqyqCEPlS4-28" value="EventBridge" style="sketch=0;points=[[0,0,0],[0.25,0,0],[0.5,0,0],[0.75,0,0],[1,0,0],[0,1,0],[0.25,1,0],[0.5,1,0],[0.75,1,0],[1,1,0],[0,0.25,0],[0,0.5,0],[0,0.75,0],[1,0.25,0],[1,0.5,0],[1,0.75,0]];outlineConnect=0;fontColor=#232F3E;fillColor=#E7157B;strokeColor=#ffffff;dashed=0;verticalLabelPosition=top;verticalAlign=bottom;align=center;html=1;fontSize=12;fontStyle=0;aspect=fixed;shape=mxgraph.aws4.resourceIcon;resIcon=mxgraph.aws4.eventbridge;labelPosition=center;" vertex="1" parent="Pea98El_WyHqyqCEPlS4-29">
          <mxGeometry width="40" height="40" as="geometry" />
        </mxCell>
        <mxCell id="Pea98El_WyHqyqCEPlS4-26" value="Lambda" style="sketch=0;outlineConnect=0;fontColor=#232F3E;gradientColor=none;fillColor=#ED7100;strokeColor=none;dashed=0;verticalLabelPosition=bottom;verticalAlign=top;align=center;html=1;fontSize=12;fontStyle=0;aspect=fixed;pointerEvents=1;shape=mxgraph.aws4.lambda_function;" vertex="1" parent="Pea98El_WyHqyqCEPlS4-29">
          <mxGeometry x="42" y="50" width="38" height="38" as="geometry" />
        </mxCell>
        <mxCell id="Pea98El_WyHqyqCEPlS4-33" style="edgeStyle=orthogonalEdgeStyle;rounded=0;orthogonalLoop=1;jettySize=auto;html=1;" edge="1" parent="Pea98El_WyHqyqCEPlS4-23" source="Pea98El_WyHqyqCEPlS4-26" target="Pea98El_WyHqyqCEPlS4-25">
          <mxGeometry relative="1" as="geometry">
            <Array as="points">
              <mxPoint x="120" y="139" />
              <mxPoint x="120" y="210" />
              <mxPoint x="53" y="210" />
            </Array>
          </mxGeometry>
        </mxCell>
        <mxCell id="Pea98El_WyHqyqCEPlS4-34" style="edgeStyle=orthogonalEdgeStyle;rounded=0;orthogonalLoop=1;jettySize=auto;html=1;" edge="1" parent="Pea98El_WyHqyqCEPlS4-23" source="Pea98El_WyHqyqCEPlS4-26" target="Pea98El_WyHqyqCEPlS4-27">
          <mxGeometry relative="1" as="geometry">
            <Array as="points">
              <mxPoint x="130" y="139" />
            </Array>
          </mxGeometry>
        </mxCell>
        <mxCell id="Pea98El_WyHqyqCEPlS4-37" style="edgeStyle=orthogonalEdgeStyle;rounded=0;orthogonalLoop=1;jettySize=auto;html=1;" edge="1" parent="Pea98El_WyHqyqCEPlS4-23" source="Pea98El_WyHqyqCEPlS4-35" target="Pea98El_WyHqyqCEPlS4-36">
          <mxGeometry relative="1" as="geometry" />
        </mxCell>
        <mxCell id="Pea98El_WyHqyqCEPlS4-35" value="API Gateway" style="sketch=0;points=[[0,0,0],[0.25,0,0],[0.5,0,0],[0.75,0,0],[1,0,0],[0,1,0],[0.25,1,0],[0.5,1,0],[0.75,1,0],[1,1,0],[0,0.25,0],[0,0.5,0],[0,0.75,0],[1,0.25,0],[1,0.5,0],[1,0.75,0]];outlineConnect=0;fontColor=#232F3E;fillColor=#E7157B;strokeColor=#ffffff;dashed=0;verticalLabelPosition=bottom;verticalAlign=top;align=center;html=1;fontSize=12;fontStyle=0;aspect=fixed;shape=mxgraph.aws4.resourceIcon;resIcon=mxgraph.aws4.api_gateway;" vertex="1" parent="Pea98El_WyHqyqCEPlS4-23">
          <mxGeometry x="250" y="48.5" width="41" height="41" as="geometry" />
        </mxCell>
        <mxCell id="Pea98El_WyHqyqCEPlS4-36" value="Lambda" style="sketch=0;outlineConnect=0;fontColor=#232F3E;gradientColor=none;fillColor=#ED7100;strokeColor=none;dashed=0;verticalLabelPosition=bottom;verticalAlign=top;align=center;html=1;fontSize=12;fontStyle=0;aspect=fixed;pointerEvents=1;shape=mxgraph.aws4.lambda_function;" vertex="1" parent="Pea98El_WyHqyqCEPlS4-23">
          <mxGeometry x="190" y="50" width="38" height="38" as="geometry" />
        </mxCell>
        <mxCell id="Pea98El_WyHqyqCEPlS4-39" style="edgeStyle=orthogonalEdgeStyle;rounded=0;orthogonalLoop=1;jettySize=auto;html=1;entryX=1;entryY=0.5;entryDx=0;entryDy=0;entryPerimeter=0;" edge="1" parent="Pea98El_WyHqyqCEPlS4-23" source="Pea98El_WyHqyqCEPlS4-36" target="Pea98El_WyHqyqCEPlS4-27">
          <mxGeometry relative="1" as="geometry" />
        </mxCell>
        <mxCell id="Pea98El_WyHqyqCEPlS4-40" value="Postgres" style="sketch=0;outlineConnect=0;fontColor=#232F3E;gradientColor=none;fillColor=#C925D1;strokeColor=none;dashed=0;verticalLabelPosition=bottom;verticalAlign=top;align=center;html=1;fontSize=12;fontStyle=0;aspect=fixed;pointerEvents=1;shape=mxgraph.aws4.rds_postgresql_instance;" vertex="1" parent="1">
          <mxGeometry x="480" y="300" width="41" height="41" as="geometry" />
        </mxCell>
      </root>
    </mxGraphModel>
  </diagram>
</mxfile>
